# xmcd
#
# Track frame offsets:
#	150
#	19050
#	33800
#	50725
#	66975
#	94350
#	113875
#	134532
#	169370
#	204150
#
# Disc length: 3013 seconds
#
# Revision: 1
# Processed by: cddbd v1.4PL0 Copyright (c) Steve Scherf et al.
# Submitted via: audiograbber 1.81.03
#
DISCID=8e0bc30a
DTITLE=Eric Clapton - Standing Around Crying [CD 2)
DYEAR=1994
DGENRE=
TTITLE0=Sinner's Prayer
TTITLE1=Can't Judge Nobody
TTITLE2=Someday After A While
TTITLE3=I'm Tore Down
TTITLE4=Have You Ever Loved A Woman
TTITLE5=Crosscut Saw
TTITLE6=Five Long Years
TTITLE7=Crossroads
TTITLE8=Groaning The Blues
TTITLE9=Ain't Nobody's Business
EXTD=
EXTT0=
EXTT1=
EXTT2=
EXTT3=
EXTT4=
EXTT5=
EXTT6=
EXTT7=
EXTT8=
EXTT9=
PLAYORDER=
